<?xml version="1.0" standalone="no"?>
<!DOCTYPE svg PUBLIC "-//W3C//DTD SVG 20010904//EN"
 "http://www.w3.org/TR/2001/REC-SVG-20010904/DTD/svg10.dtd">
<svg version="1.0"
  xmlns="http://www.w3.org/2000/svg" width="700.000000pt" height="700.000000pt" viewBox="0 0 700.000000 700.000000" preserveAspectRatio="xMidYMid meet">
  <metadata>
Created by potrace 1.11, written by Peter Selinger 2001-2013
  </metadata>
  <g transform="translate(0.000000,700.000000) scale(0.100000,-0.100000)" fill="#000000" stroke="none">
    <path d="M3230 6460 l0 -540 -540 0 -540 0 0 -270 0 -270 -265 0 -265 0 0
-265 0 -265 -270 0 -270 0 0 -540 0 -540 -540 0 -540 0 0 -270 0 -270 540 0
540 0 0 -540 0 -540 270 0 270 0 0 -265 0 -265 265 0 265 0 0 -270 0 -270 540
0 540 0 0 -540 0 -540 270 0 270 0 0 540 0 540 540 0 540 0 0 270 0 270 265 0
265 0 0 265 0 265 270 0 270 0 0 540 0 540 540 0 540 0 0 270 0 270 -540 0
-540 0 0 540 0 540 -270 0 -270 0 0 265 0 265 -265 0 -265 0 0 270 0 270 -540
0 -540 0 0 540 0 540 -270 0 -270 0 0 -540z m0 -2150 l0 -540 -540 0 -540 0 0
533 c0 294 3 537 7 540 3 4 246 7 540 7 l533 0 0 -540z"/>
    <path d="M1080 5650 l0 -270 268 2 267 3 3 268 2 267 -270 0 -270 0 0 -270z"/>
    <path d="M5382 5653 l3 -268 268 -3 267 -2 0 270 0 270 -270 0 -270 0 2 -267z"/>
    <path d="M1080 1350 l0 -270 270 0 270 0 -2 268 -3 267 -267 3 -268 2 0 -270z"/>
    <path d="M5387 1613 c-4 -3 -7 -125 -7 -270 l0 -263 270 0 270 0 0 270 0 270
-263 0 c-145 0 -267 -3 -270 -7z"/>
  </g>
</svg> 
