<?xml version="1.0" encoding="UTF-8" standalone="no"?>
<!DOCTYPE svg PUBLIC "-//W3C//DTD SVG 1.1//EN" "http://www.w3.org/Graphics/SVG/1.1/DTD/svg11.dtd">
<svg version="1.1" xmlns="http://www.w3.org/2000/svg" xmlns:xlink="http://www.w3.org/1999/xlink" preserveAspectRatio="xMidYMid meet" viewBox="0 0 640 640" width="640" height="640"><defs><path d="M344.62 0L344.62 640L295.38 640L295.38 0L344.62 0Z" id="c1869Eaf7T"></path><path d="M640 295.38L640 344.62L0 344.62L0 295.38L640 295.38Z" id="b83grbfB4K"></path><path d="M443.08 98.46L443.08 541.54L196.92 541.54L196.92 98.46L443.08 98.46Z" id="e1iuZEEA3R"></path><path d="M541.54 196.92L541.54 443.08L98.46 443.08L98.46 196.92L541.54 196.92Z" id="aDQJB3yqJ"></path><path d="M492.31 147.69L492.31 492.31L147.69 492.31L147.69 147.69L492.31 147.69Z" id="aThLoqizf"></path><path d="M295.38 196.92L295.38 295.38L196.92 295.38L196.92 196.92L295.38 196.92Z" id="aEI1pAJT2"></path><path d="M147.69 49.23L147.69 147.69L49.23 147.69L49.23 49.23L147.69 49.23Z" id="cDIYDnvq0"></path><path d="M196.92 147.69L196.92 196.92L147.69 196.92L147.69 147.69L196.92 147.69Z" id="b1GTbdvDx"></path><path d="M246.15 196.92L246.15 246.15L196.92 246.15L196.92 196.92L246.15 196.92Z" id="a1A5CYXdqF"></path><path d="M295.38 246.15L295.38 295.38L246.15 295.38L246.15 246.15L295.38 246.15Z" id="a2lj2bxUYo"></path><path d="M344.62 295.39L344.62 344.62L295.39 344.62L295.39 295.39L344.62 295.39Z" id="a1wAADBIwa"></path><path d="M393.85 344.62L393.85 393.85L344.62 393.85L344.62 344.62L393.85 344.62Z" id="dTr4Db40B"></path><path d="M492.31 443.08L492.31 492.31L443.08 492.31L443.08 443.08L492.31 443.08Z" id="bGH8Y8R79"></path><path d="M443.08 393.85L443.08 443.08L393.85 443.08L393.85 393.85L443.08 393.85Z" id="a6iOb3KIA"></path><path d="M590.77 541.54L590.77 590.77L541.54 590.77L541.54 541.54L590.77 541.54Z" id="n9gBrGyWs"></path><path d="M541.54 492.31L541.54 541.54L492.31 541.54L492.31 492.31L541.54 492.31Z" id="c1ovVllSjG"></path><path d="M590.77 49.23L590.77 98.46L541.54 98.46L541.54 49.23L590.77 49.23Z" id="ba8UXeUUtf"></path><path d="M492.31 147.69L492.31 196.92L443.08 196.92L443.08 147.69L492.31 147.69Z" id="c5o2i0kl4y"></path><path d="M443.08 196.92L443.08 246.15L393.85 246.15L393.85 196.92L443.08 196.92Z" id="aS3QSKzKd"></path><path d="M393.85 246.15L393.85 295.38L344.62 295.38L344.62 246.15L393.85 246.15Z" id="cM76cuyLQ"></path><path d="M295.38 344.62L295.38 393.85L246.15 393.85L246.15 344.62L295.38 344.62Z" id="c2Dm1hvQ7"></path><path d="M246.15 393.85L246.15 443.08L196.92 443.08L196.92 393.85L246.15 393.85Z" id="e1aR4EjOGS"></path><path d="M196.92 443.08L196.92 492.31L147.69 492.31L147.69 443.08L196.92 443.08Z" id="co90jjoS9"></path><path d="M98.46 541.54L98.46 590.77L49.23 590.77L49.23 541.54L98.46 541.54Z" id="d1XLw8j9bH"></path><path d="M147.69 492.31L147.69 541.54L98.46 541.54L98.46 492.31L147.69 492.31Z" id="a4Lrv34vg"></path><path d="M541.54 98.46L541.54 147.69L492.31 147.69L492.31 98.46L541.54 98.46Z" id="a4jmD5Ed9F"></path><path d="M344.61 147.69L344.61 246.15L246.15 246.15L246.15 147.69L344.61 147.69Z" id="c1xKO8ZwLA"></path><path d="M246.15 246.15L246.15 344.61L147.69 344.61L147.69 246.15L246.15 246.15Z" id="b4SnLEU3dx"></path><path d="M196.92 98.46L196.92 196.92L98.46 196.92L98.46 98.46L196.92 98.46Z" id="iMtWZimxS"></path><path d="M246.15 147.69L246.15 246.15L147.69 246.15L147.69 147.69L246.15 147.69Z" id="bgb0HrIQO"></path><path d="M295.38 196.92L295.38 295.38L196.92 295.38L196.92 196.92L295.38 196.92Z" id="cafhauYn6"></path><path d="M344.62 246.15L344.62 344.61L246.16 344.61L246.16 246.15L344.62 246.15Z" id="b1FrJswcBv"></path><path d="M590.77 492.31L590.77 590.77L492.31 590.77L492.31 492.31L590.77 492.31Z" id="e5Znh98X2a"></path><path d="M541.54 443.08L541.54 541.54L443.08 541.54L443.08 443.08L541.54 443.08Z" id="f86zlHyov"></path><path d="M492.31 393.85L492.31 492.31L393.85 492.31L393.85 393.85L492.31 393.85Z" id="a1AKwyguHd"></path><path d="M443.08 344.62L443.08 443.08L344.62 443.08L344.62 344.62L443.08 344.62Z" id="e2sYsf1LTw"></path><path d="M393.84 295.39L393.84 393.85L295.38 393.85L295.38 295.39L393.84 295.39Z" id="b3ATlRyyO"></path><path d="M443.08 196.92L443.08 295.38L344.62 295.38L344.62 196.92L443.08 196.92Z" id="aKGX4y6LV"></path><path d="M492.31 147.69L492.31 246.15L393.85 246.15L393.85 147.69L492.31 147.69Z" id="f4uXNGvNr"></path><path d="M541.54 98.46L541.54 196.92L443.08 196.92L443.08 98.46L541.54 98.46Z" id="ll183wiuB"></path><path d="M590.77 49.23L590.77 147.69L492.31 147.69L492.31 49.23L590.77 49.23Z" id="ajtClmLM"></path><path d="M295.38 344.62L295.38 443.08L196.92 443.08L196.92 344.62L295.38 344.62Z" id="d2Pt6z75yJ"></path><path d="M246.15 393.85L246.15 492.31L147.69 492.31L147.69 393.85L246.15 393.85Z" id="g2lbaIWb3S"></path><path d="M147.69 492.31L147.69 590.77L49.23 590.77L49.23 492.31L147.69 492.31Z" id="a2mggUrQsb"></path><path d="M196.92 443.08L196.92 541.54L98.46 541.54L98.46 443.08L196.92 443.08Z" id="ataGocWzb"></path></defs><g><g><g><use xlink:href="#c1869Eaf7T" opacity="1" fill="#000000" fill-opacity="1"></use><g><use xlink:href="#c1869Eaf7T" opacity="1" fill-opacity="0" stroke="#000000" stroke-width="1" stroke-opacity="0"></use></g></g><g><use xlink:href="#b83grbfB4K" opacity="1" fill="#000000" fill-opacity="1"></use><g><use xlink:href="#b83grbfB4K" opacity="1" fill-opacity="0" stroke="#000000" stroke-width="1" stroke-opacity="0"></use></g></g><g><use xlink:href="#e1iuZEEA3R" opacity="1" fill="#000000" fill-opacity="1"></use><g><use xlink:href="#e1iuZEEA3R" opacity="1" fill-opacity="0" stroke="#000000" stroke-width="1" stroke-opacity="0"></use></g></g><g><use xlink:href="#aDQJB3yqJ" opacity="1" fill="#000000" fill-opacity="1"></use><g><use xlink:href="#aDQJB3yqJ" opacity="1" fill-opacity="0" stroke="#000000" stroke-width="1" stroke-opacity="0"></use></g></g><g><use xlink:href="#aThLoqizf" opacity="1" fill="#000000" fill-opacity="1"></use><g><use xlink:href="#aThLoqizf" opacity="1" fill-opacity="0" stroke="#000000" stroke-width="1" stroke-opacity="0"></use></g></g><g><use xlink:href="#aEI1pAJT2" opacity="1" fill="#ffffff" fill-opacity="1"></use><g><use xlink:href="#aEI1pAJT2" opacity="1" fill-opacity="0" stroke="#000000" stroke-width="1" stroke-opacity="0"></use></g></g><g><use xlink:href="#cDIYDnvq0" opacity="1" fill="#ff0000" fill-opacity="1"></use><g><use xlink:href="#cDIYDnvq0" opacity="1" fill-opacity="0" stroke="#000000" stroke-width="1" stroke-opacity="0"></use></g></g><g><use xlink:href="#b1GTbdvDx" opacity="1" fill="#ff0000" fill-opacity="1"></use><g><use xlink:href="#b1GTbdvDx" opacity="1" fill-opacity="0" stroke="#000000" stroke-width="1" stroke-opacity="0"></use></g></g><g><use xlink:href="#a1A5CYXdqF" opacity="1" fill="#ff0000" fill-opacity="1"></use><g><use xlink:href="#a1A5CYXdqF" opacity="1" fill-opacity="0" stroke="#000000" stroke-width="1" stroke-opacity="0"></use></g></g><g><use xlink:href="#a2lj2bxUYo" opacity="1" fill="#ff0000" fill-opacity="1"></use><g><use xlink:href="#a2lj2bxUYo" opacity="1" fill-opacity="0" stroke="#000000" stroke-width="1" stroke-opacity="0"></use></g></g><g><use xlink:href="#a1wAADBIwa" opacity="1" fill="#ff0000" fill-opacity="1"></use><g><use xlink:href="#a1wAADBIwa" opacity="1" fill-opacity="0" stroke="#000000" stroke-width="1" stroke-opacity="0"></use></g></g><g><use xlink:href="#dTr4Db40B" opacity="1" fill="#ff0000" fill-opacity="1"></use><g><use xlink:href="#dTr4Db40B" opacity="1" fill-opacity="0" stroke="#000000" stroke-width="1" stroke-opacity="0"></use></g></g><g><use xlink:href="#bGH8Y8R79" opacity="1" fill="#ff0000" fill-opacity="1"></use><g><use xlink:href="#bGH8Y8R79" opacity="1" fill-opacity="0" stroke="#000000" stroke-width="1" stroke-opacity="0"></use></g></g><g><use xlink:href="#a6iOb3KIA" opacity="1" fill="#ff0000" fill-opacity="1"></use><g><use xlink:href="#a6iOb3KIA" opacity="1" fill-opacity="0" stroke="#000000" stroke-width="1" stroke-opacity="0"></use></g></g><g><use xlink:href="#n9gBrGyWs" opacity="1" fill="#ff0000" fill-opacity="1"></use><g><use xlink:href="#n9gBrGyWs" opacity="1" fill-opacity="0" stroke="#000000" stroke-width="1" stroke-opacity="0"></use></g></g><g><use xlink:href="#c1ovVllSjG" opacity="1" fill="#ff0000" fill-opacity="1"></use><g><use xlink:href="#c1ovVllSjG" opacity="1" fill-opacity="0" stroke="#000000" stroke-width="1" stroke-opacity="0"></use></g></g><g><use xlink:href="#ba8UXeUUtf" opacity="1" fill="#ff0000" fill-opacity="1"></use><g><use xlink:href="#ba8UXeUUtf" opacity="1" fill-opacity="0" stroke="#000000" stroke-width="1" stroke-opacity="0"></use></g></g><g><use xlink:href="#c5o2i0kl4y" opacity="1" fill="#ff0000" fill-opacity="1"></use><g><use xlink:href="#c5o2i0kl4y" opacity="1" fill-opacity="0" stroke="#000000" stroke-width="1" stroke-opacity="0"></use></g></g><g><use xlink:href="#aS3QSKzKd" opacity="1" fill="#ff0000" fill-opacity="1"></use><g><use xlink:href="#aS3QSKzKd" opacity="1" fill-opacity="0" stroke="#000000" stroke-width="1" stroke-opacity="0"></use></g></g><g><use xlink:href="#cM76cuyLQ" opacity="1" fill="#ff0000" fill-opacity="1"></use><g><use xlink:href="#cM76cuyLQ" opacity="1" fill-opacity="0" stroke="#000000" stroke-width="1" stroke-opacity="0"></use></g></g><g><use xlink:href="#c2Dm1hvQ7" opacity="1" fill="#ff0000" fill-opacity="1"></use><g><use xlink:href="#c2Dm1hvQ7" opacity="1" fill-opacity="0" stroke="#000000" stroke-width="1" stroke-opacity="0"></use></g></g><g><use xlink:href="#e1aR4EjOGS" opacity="1" fill="#ff0000" fill-opacity="1"></use><g><use xlink:href="#e1aR4EjOGS" opacity="1" fill-opacity="0" stroke="#000000" stroke-width="1" stroke-opacity="0"></use></g></g><g><use xlink:href="#co90jjoS9" opacity="1" fill="#ff0000" fill-opacity="1"></use><g><use xlink:href="#co90jjoS9" opacity="1" fill-opacity="0" stroke="#000000" stroke-width="1" stroke-opacity="0"></use></g></g><g><use xlink:href="#d1XLw8j9bH" opacity="1" fill="#ff0000" fill-opacity="1"></use><g><use xlink:href="#d1XLw8j9bH" opacity="1" fill-opacity="0" stroke="#000000" stroke-width="1" stroke-opacity="0"></use></g></g><g><use xlink:href="#a4Lrv34vg" opacity="1" fill="#ff0000" fill-opacity="1"></use><g><use xlink:href="#a4Lrv34vg" opacity="1" fill-opacity="0" stroke="#000000" stroke-width="1" stroke-opacity="0"></use></g></g><g><use xlink:href="#a4jmD5Ed9F" opacity="1" fill="#ff0000" fill-opacity="1"></use><g><use xlink:href="#a4jmD5Ed9F" opacity="1" fill-opacity="0" stroke="#000000" stroke-width="1" stroke-opacity="0"></use></g></g><g><use xlink:href="#c1xKO8ZwLA" opacity="1" fill="#000000" fill-opacity="1"></use><g><use xlink:href="#c1xKO8ZwLA" opacity="1" fill-opacity="0" stroke="#000000" stroke-width="1" stroke-opacity="0"></use></g></g><g><use xlink:href="#b4SnLEU3dx" opacity="1" fill="#000000" fill-opacity="1"></use><g><use xlink:href="#b4SnLEU3dx" opacity="1" fill-opacity="0" stroke="#000000" stroke-width="1" stroke-opacity="0"></use></g></g><g><use xlink:href="#iMtWZimxS" opacity="1" fill="#ff0000" fill-opacity="1"></use><g><use xlink:href="#iMtWZimxS" opacity="1" fill-opacity="0" stroke="#000000" stroke-width="1" stroke-opacity="0"></use></g></g><g><use xlink:href="#bgb0HrIQO" opacity="1" fill="#ff0000" fill-opacity="1"></use><g><use xlink:href="#bgb0HrIQO" opacity="1" fill-opacity="0" stroke="#000000" stroke-width="1" stroke-opacity="0"></use></g></g><g><use xlink:href="#cafhauYn6" opacity="1" fill="#ff0000" fill-opacity="1"></use><g><use xlink:href="#cafhauYn6" opacity="1" fill-opacity="0" stroke="#000000" stroke-width="1" stroke-opacity="0"></use></g></g><g><use xlink:href="#b1FrJswcBv" opacity="1" fill="#ff0000" fill-opacity="1"></use><g><use xlink:href="#b1FrJswcBv" opacity="1" fill-opacity="0" stroke="#000000" stroke-width="1" stroke-opacity="0"></use></g></g><g><use xlink:href="#e5Znh98X2a" opacity="1" fill="#ff0000" fill-opacity="1"></use><g><use xlink:href="#e5Znh98X2a" opacity="1" fill-opacity="0" stroke="#000000" stroke-width="1" stroke-opacity="0"></use></g></g><g><use xlink:href="#f86zlHyov" opacity="1" fill="#ff0000" fill-opacity="1"></use><g><use xlink:href="#f86zlHyov" opacity="1" fill-opacity="0" stroke="#000000" stroke-width="1" stroke-opacity="0"></use></g></g><g><use xlink:href="#a1AKwyguHd" opacity="1" fill="#ff0000" fill-opacity="1"></use><g><use xlink:href="#a1AKwyguHd" opacity="1" fill-opacity="0" stroke="#000000" stroke-width="1" stroke-opacity="0"></use></g></g><g><use xlink:href="#e2sYsf1LTw" opacity="1" fill="#ff0000" fill-opacity="1"></use><g><use xlink:href="#e2sYsf1LTw" opacity="1" fill-opacity="0" stroke="#000000" stroke-width="1" stroke-opacity="0"></use></g></g><g><use xlink:href="#b3ATlRyyO" opacity="1" fill="#ff0000" fill-opacity="1"></use><g><use xlink:href="#b3ATlRyyO" opacity="1" fill-opacity="0" stroke="#000000" stroke-width="1" stroke-opacity="0"></use></g></g><g><use xlink:href="#aKGX4y6LV" opacity="1" fill="#ff0000" fill-opacity="1"></use><g><use xlink:href="#aKGX4y6LV" opacity="1" fill-opacity="0" stroke="#000000" stroke-width="1" stroke-opacity="0"></use></g></g><g><use xlink:href="#f4uXNGvNr" opacity="1" fill="#ff0000" fill-opacity="1"></use><g><use xlink:href="#f4uXNGvNr" opacity="1" fill-opacity="0" stroke="#000000" stroke-width="1" stroke-opacity="0"></use></g></g><g><use xlink:href="#ll183wiuB" opacity="1" fill="#ff0000" fill-opacity="1"></use><g><use xlink:href="#ll183wiuB" opacity="1" fill-opacity="0" stroke="#000000" stroke-width="1" stroke-opacity="0"></use></g></g><g><use xlink:href="#ajtClmLM" opacity="1" fill="#ff0000" fill-opacity="1"></use><g><use xlink:href="#ajtClmLM" opacity="1" fill-opacity="0" stroke="#000000" stroke-width="1" stroke-opacity="0"></use></g></g><g><use xlink:href="#d2Pt6z75yJ" opacity="1" fill="#ff0000" fill-opacity="1"></use><g><use xlink:href="#d2Pt6z75yJ" opacity="1" fill-opacity="0" stroke="#000000" stroke-width="1" stroke-opacity="0"></use></g></g><g><use xlink:href="#g2lbaIWb3S" opacity="1" fill="#ff0000" fill-opacity="1"></use><g><use xlink:href="#g2lbaIWb3S" opacity="1" fill-opacity="0" stroke="#000000" stroke-width="1" stroke-opacity="0"></use></g></g><g><use xlink:href="#a2mggUrQsb" opacity="1" fill="#ff0000" fill-opacity="1"></use><g><use xlink:href="#a2mggUrQsb" opacity="1" fill-opacity="0" stroke="#000000" stroke-width="1" stroke-opacity="0"></use></g></g><g><use xlink:href="#ataGocWzb" opacity="1" fill="#ff0000" fill-opacity="1"></use><g><use xlink:href="#ataGocWzb" opacity="1" fill-opacity="0" stroke="#000000" stroke-width="1" stroke-opacity="0"></use></g></g></g></g></svg>